<svg version="1.1" viewBox="0.0 0.0 600.0 371.0" fill="none" stroke="none" stroke-linecap="square" stroke-miterlimit="10" width="600" height="371" xmlns:xlink="http://www.w3.org/1999/xlink" xmlns="http://www.w3.org/2000/svg"><path fill="#ffffff" d="M0 0L600.0 0L600.0 371.0L0 371.0L0 0Z" fill-rule="nonzero"/><path stroke="#333333" stroke-width="1.0" stroke-linecap="butt" d="M77.5 300.5L581.5 300.5" fill-rule="nonzero"/><path stroke="#cccccc" stroke-width="1.0" stroke-linecap="butt" d="M77.5 273.5L581.5 273.5" fill-rule="nonzero"/><path stroke="#cccccc" stroke-width="1.0" stroke-linecap="butt" d="M77.5 247.5L581.5 247.5" fill-rule="nonzero"/><path stroke="#cccccc" stroke-width="1.0" stroke-linecap="butt" d="M77.5 220.5L581.5 220.5" fill-rule="nonzero"/><path stroke="#cccccc" stroke-width="1.0" stroke-linecap="butt" d="M77.5 194.5L581.5 194.5" fill-rule="nonzero"/><path stroke="#cccccc" stroke-width="1.0" stroke-linecap="butt" d="M77.5 167.5L581.5 167.5" fill-rule="nonzero"/><path stroke="#cccccc" stroke-width="1.0" stroke-linecap="butt" d="M77.5 141.5L581.5 141.5" fill-rule="nonzero"/><path stroke="#cccccc" stroke-width="1.0" stroke-linecap="butt" d="M77.5 114.5L581.5 114.5" fill-rule="nonzero"/><path stroke="#cccccc" stroke-width="1.0" stroke-linecap="butt" d="M77.5 88.5L581.5 88.5" fill-rule="nonzero"/><path stroke="#cccccc" stroke-width="1.0" stroke-linecap="butt" d="M77.5 61.5L581.5 61.5" fill-rule="nonzero"/><path stroke="#000000" stroke-width="1.0" stroke-linecap="butt" d="M77.5 300.5L77.5 61.5" fill-rule="nonzero"/><clipPath id="id_0"><path d="M77.55 61.916668L581.45 61.916668L581.45 300.45L77.55 300.45L77.55 61.916668Z" clip-rule="nonzero"/></clipPath><path stroke="#000000" stroke-width="2.0" stroke-linecap="butt" stroke-opacity="0.0" clip-path="url(#id_0)" d="M172.0 300.0L111.0 300.0L111.0 268.0C111.0 266.89542 111.89543 266.0 113.0 266.0L170.0 266.0C171.10457 266.0 172.0 266.89542 172.0 268.0Z" fill-rule="nonzero"/><path fill="#eabd77" clip-path="url(#id_0)" d="M172.0 300.0L111.0 300.0L111.0 268.0C111.0 266.89542 111.89543 266.0 113.0 266.0L170.0 266.0C171.10457 266.0 172.0 266.89542 172.0 268.0Z" fill-rule="nonzero"/><path stroke="#000000" stroke-width="2.0" stroke-linecap="butt" stroke-opacity="0.0" clip-path="url(#id_0)" d="M266.0 300.0L205.0 300.0L205.0 138.0C205.0 136.89543 205.89543 136.0 207.0 136.0L264.0 136.0C265.10458 136.0 266.0 136.89543 266.0 138.0Z" fill-rule="nonzero"/><path fill="#eabd77" clip-path="url(#id_0)" d="M266.0 300.0L205.0 300.0L205.0 138.0C205.0 136.89543 205.89543 136.0 207.0 136.0L264.0 136.0C265.10458 136.0 266.0 136.89543 266.0 138.0Z" fill-rule="nonzero"/><path stroke="#000000" stroke-width="2.0" stroke-linecap="butt" stroke-opacity="0.0" clip-path="url(#id_0)" d="M361.0 300.0L300.0 300.0L300.0 130.0C300.0 128.89543 300.89542 128.0 302.0 128.0L359.0 128.0C360.10458 128.0 361.0 128.89543 361.0 130.0Z" fill-rule="nonzero"/><path fill="#eabd77" clip-path="url(#id_0)" d="M361.0 300.0L300.0 300.0L300.0 130.0C300.0 128.89543 300.89542 128.0 302.0 128.0L359.0 128.0C360.10458 128.0 361.0 128.89543 361.0 130.0Z" fill-rule="nonzero"/><path stroke="#000000" stroke-width="2.0" stroke-linecap="butt" stroke-opacity="0.0" clip-path="url(#id_0)" d="M455.0 300.0L394.0 300.0L394.0 82.0C394.0 80.89543 394.89542 80.0 396.0 80.0L453.0 80.0C454.10458 80.0 455.0 80.89543 455.0 82.0Z" fill-rule="nonzero"/><path fill="#eabd77" clip-path="url(#id_0)" d="M455.0 300.0L394.0 300.0L394.0 82.0C394.0 80.89543 394.89542 80.0 396.0 80.0L453.0 80.0C454.10458 80.0 455.0 80.89543 455.0 82.0Z" fill-rule="nonzero"/><path stroke="#000000" stroke-width="2.0" stroke-linecap="butt" stroke-opacity="0.0" clip-path="url(#id_0)" d="M549.0 300.0L488.0 300.0L488.0 234.0C488.0 232.89543 488.89542 232.0 490.0 232.0L547.0 232.0C548.10455 232.0 549.0 232.89543 549.0 234.0Z" fill-rule="nonzero"/><path fill="#eabd77" clip-path="url(#id_0)" d="M549.0 300.0L488.0 300.0L488.0 234.0C488.0 232.89543 488.89542 232.0 490.0 232.0L547.0 232.0C548.10455 232.0 549.0 232.89543 549.0 234.0Z" fill-rule="nonzero"/><path fill="#000000" d="M314.10938 349.45L314.10938 341.8719L311.28125 341.8719L311.28125 340.85626L318.09375 340.85626L318.09375 341.8719L315.25 341.8719L315.25 349.45L314.10938 349.45ZM322.85938 348.6844Q322.26562 349.1844 321.71875 349.3875Q321.1875 349.59064 320.5625 349.59064Q319.53125 349.59064 318.98438 349.09064Q318.4375 348.59064 318.4375 347.8094Q318.4375 347.35626 318.64062 346.98126Q318.84375 346.59064 319.1875 346.3719Q319.53125 346.1375 319.95312 346.02814Q320.25 345.9344 320.89062 345.85626Q322.15625 345.71564 322.76562 345.4969Q322.76562 345.27814 322.76562 345.23126Q322.76562 344.575 322.46875 344.3094Q322.0625 343.96564 321.26562 343.96564Q320.53125 343.96564 320.17188 344.23126Q319.8125 344.48126 319.64062 345.1375L318.60938 344.9969Q318.75 344.34064 319.07812 343.9344Q319.40625 343.52814 320.01562 343.3094Q320.625 343.09064 321.42188 343.09064Q322.21875 343.09064 322.71875 343.27814Q323.21875 343.46564 323.45312 343.7469Q323.6875 344.02814 323.78125 344.46564Q323.82812 344.73126 323.82812 345.4344L323.82812 346.84064Q323.82812 348.3094 323.89062 348.7Q323.96875 349.09064 324.17188 349.45L323.0625 349.45Q322.90625 349.1219 322.85938 348.6844ZM322.76562 346.325Q322.1875 346.5594 321.04688 346.73126Q320.39062 346.825 320.125 346.95Q319.85938 347.0594 319.70312 347.27814Q319.5625 347.4969 319.5625 347.77814Q319.5625 348.2 319.875 348.48126Q320.20312 348.7625 320.8125 348.7625Q321.42188 348.7625 321.89062 348.4969Q322.375 348.23126 322.59375 347.7625Q322.76562 347.40314 322.76562 346.71564L322.76562 346.325ZM325.375 347.59064L326.40625 347.4344Q326.5 348.0594 326.89062 348.3875Q327.29688 348.71564 328.03125 348.71564Q328.75 348.71564 329.09375 348.4344Q329.45312 348.1375 329.45312 347.73126Q329.45312 347.3719 329.14062 347.16876Q328.92188 347.02814 328.0625 346.8094Q326.90625 346.5125 326.45312 346.3094Q326.01562 346.09064 325.78125 345.71564Q325.54688 345.34064 325.54688 344.8719Q325.54688 344.46564 325.73438 344.10626Q325.92188 343.7469 326.25 343.5125Q326.5 343.34064 326.92188 343.21564Q327.34375 343.09064 327.84375 343.09064Q328.5625 343.09064 329.10938 343.3094Q329.67188 343.5125 329.9375 343.8719Q330.20312 344.23126 330.29688 344.825L329.26562 344.96564Q329.20312 344.4969 328.85938 344.23126Q328.53125 343.95 327.90625 343.95Q327.1875 343.95 326.875 344.2Q326.5625 344.4344 326.5625 344.7625Q326.5625 344.96564 326.6875 345.1219Q326.82812 345.29376 327.09375 345.40314Q327.25 345.46564 328.03125 345.66876Q329.15625 345.98126 329.59375 346.16876Q330.03125 346.35626 330.28125 346.71564Q330.53125 347.075 330.53125 347.6219Q330.53125 348.15314 330.21875 348.6219Q329.92188 349.075 329.34375 349.34064Q328.76562 349.59064 328.03125 349.59064Q326.8125 349.59064 326.17188 349.09064Q325.54688 348.575 325.375 347.59064ZM332.79688 349.45L332.79688 340.85626L333.85938 340.85626L333.85938 345.7625L336.34375 343.23126L337.71875 343.23126L335.32812 345.52814L337.95312 349.45L336.65625 349.45L334.59375 346.2625L333.85938 346.98126L333.85938 349.45L332.79688 349.45ZM341.60938 349.59064L342.10938 347.10626L341.125 347.10626L341.125 346.23126L342.29688 346.23126L342.71875 344.10626L341.125 344.10626L341.125 343.23126L342.90625 343.23126L343.40625 340.71564L344.28125 340.71564L343.78125 343.23126L345.625 343.23126L346.14062 340.71564L347.01562 340.71564L346.51562 343.23126L347.51562 343.23126L347.51562 344.10626L346.32812 344.10626L345.89062 346.23126L347.51562 346.23126L347.51562 347.10626L345.71875 347.10626L345.20312 349.59064L344.32812 349.59064L344.82812 347.10626L343.0 347.10626L342.48438 349.59064L341.60938 349.59064ZM343.17188 346.23126L345.01562 346.23126L345.45312 344.10626L343.60938 344.10626L343.17188 346.23126Z" fill-rule="nonzero"/><path fill="#000000" d="M28.612513 264.5896L29.534388 264.43335Q29.628138 264.88647 29.628138 265.23022Q29.628138 265.80835 29.456263 266.12085Q29.268763 266.43335 28.971888 266.57397Q28.675013 266.69897 27.721888 266.69897L24.143763 266.69897L24.143763 267.4646L23.331263 267.4646L23.331263 266.69897L21.784388 266.69897L21.159388 265.6521L23.331263 265.6521L23.331263 264.5896L24.143763 264.5896L24.143763 265.6521L27.784388 265.6521Q28.237513 265.6521 28.362513 265.60522Q28.487513 265.54272 28.565638 265.41772Q28.643763 265.29272 28.643763 265.05835Q28.643763 264.87085 28.612513 264.5896ZM22.175013 263.88647L20.956263 263.88647L20.956263 262.82397L22.175013 262.82397L22.175013 263.88647ZM29.550013 263.88647L23.331263 263.88647L23.331263 262.82397L29.550013 262.82397L29.550013 263.88647ZM29.550013 260.88647L23.331263 260.88647L23.331263 259.94897L24.206263 259.94897Q23.737513 259.6521 23.471888 259.16772Q23.190638 258.68335 23.190638 258.05835Q23.190638 257.37085 23.471888 256.93335Q23.753138 256.48022 24.268763 256.30835Q23.190638 255.55833 23.190638 254.38646Q23.190638 253.44896 23.706263 252.96458Q24.206263 252.46458 25.284388 252.46458L29.550013 252.46458L29.550013 253.51146L25.628138 253.51146Q25.003138 253.51146 24.721888 253.62083Q24.440638 253.71458 24.268763 253.98021Q24.096888 254.24583 24.096888 254.62083Q24.096888 255.27708 24.534388 255.71458Q24.971888 256.13647 25.940638 256.13647L29.550013 256.13647L29.550013 257.19897L25.503138 257.19897Q24.800013 257.19897 24.456263 257.4646Q24.096888 257.7146 24.096888 258.29272Q24.096888 258.74585 24.331263 259.12085Q24.565638 259.49585 25.018763 259.66772Q25.471888 259.8396 26.315638 259.8396L29.550013 259.8396L29.550013 260.88647ZM27.550013 245.63646L27.675013 244.54271Q28.628138 244.79271 29.159388 245.49583Q29.690638 246.19896 29.690638 247.27708Q29.690638 248.63646 28.846888 249.44896Q28.003138 250.24583 26.487513 250.24583Q24.925013 250.24583 24.065638 249.43333Q23.190638 248.62083 23.190638 247.33958Q23.190638 246.08958 24.034388 245.30833Q24.878138 244.51146 26.425013 244.51146Q26.518763 244.51146 26.706263 244.51146L26.706263 249.15208Q27.737513 249.08958 28.284388 248.57396Q28.815638 248.05833 28.815638 247.27708Q28.815638 246.69896 28.518763 246.29271Q28.206263 245.87083 27.550013 245.63646ZM25.846888 249.08958L25.846888 245.62083Q25.050013 245.68333 24.659388 246.01146Q24.050013 246.52708 24.050013 247.32396Q24.050013 248.05833 24.534388 248.55833Q25.018763 249.04271 25.846888 249.08958ZM27.690638 240.30833L27.534388 239.27708Q28.159388 239.18333 28.487513 238.79271Q28.815638 238.38646 28.815638 237.65208Q28.815638 236.93333 28.534388 236.58958Q28.237513 236.23021 27.831263 236.23021Q27.471888 236.23021 27.268763 236.54271Q27.128138 236.76146 26.909388 237.62083Q26.612513 238.77708 26.409388 239.23021Q26.190638 239.66771 25.815638 239.90208Q25.440638 240.13646 24.971888 240.13646Q24.565638 240.13646 24.206263 239.94896Q23.846888 239.76146 23.612513 239.43333Q23.440638 239.18333 23.315638 238.76146Q23.190638 238.33958 23.190638 237.83958Q23.190638 237.12083 23.409388 236.57396Q23.612513 236.01146 23.971888 235.74583Q24.331263 235.48021 24.925013 235.38646L25.065638 236.41771Q24.596888 236.48021 24.331263 236.82396Q24.050013 237.15208 24.050013 237.77708Q24.050013 238.49583 24.300013 238.80833Q24.534388 239.12083 24.862513 239.12083Q25.065638 239.12083 25.221888 238.99583Q25.393763 238.85521 25.503138 238.58958Q25.565638 238.43333 25.768763 237.65208Q26.081263 236.52708 26.268763 236.08958Q26.456263 235.65208 26.815638 235.40208Q27.175013 235.15208 27.721888 235.15208Q28.253138 235.15208 28.721888 235.46458Q29.175013 235.76146 29.440638 236.33958Q29.690638 236.91771 29.690638 237.65208Q29.690638 238.87083 29.190638 239.51146Q28.675013 240.13646 27.690638 240.30833ZM31.940638 232.88646L23.331263 232.88646L23.331263 231.93333L24.128138 231.93333Q23.659388 231.58958 23.425013 231.16771Q23.190638 230.73021 23.190638 230.12083Q23.190638 229.32396 23.596888 228.71458Q24.003138 228.10521 24.753138 227.80833Q25.503138 227.49583 26.393763 227.49583Q27.346888 227.49583 28.112513 227.83958Q28.878138 228.16771 29.284388 228.82396Q29.690638 229.48021 29.690638 230.19896Q29.690638 230.73021 29.471888 231.15208Q29.237513 231.57396 28.909388 231.83958L31.940638 231.83958L31.940638 232.88646ZM26.471888 231.93333Q27.675013 231.93333 28.253138 231.44896Q28.815638 230.96458 28.815638 230.27708Q28.815638 229.57396 28.221888 229.07396Q27.628138 228.57396 26.378138 228.57396Q25.190638 228.57396 24.612513 229.05833Q24.018763 229.54271 24.018763 230.23021Q24.018763 230.90208 24.643763 231.41771Q25.268763 231.93333 26.471888 231.93333ZM27.550013 221.63646L27.675013 220.54271Q28.628138 220.79271 29.159388 221.49583Q29.690638 222.19896 29.690638 223.27708Q29.690638 224.63646 28.846888 225.44896Q28.003138 226.24583 26.487513 226.24583Q24.925013 226.24583 24.065638 225.43333Q23.190638 224.62083 23.190638 223.33958Q23.190638 222.08958 24.034388 221.30833Q24.878138 220.51146 26.425013 220.51146Q26.518763 220.51146 26.706263 220.51146L26.706263 225.15208Q27.737513 225.08958 28.284388 224.57396Q28.815638 224.05833 28.815638 223.27708Q28.815638 222.69896 28.518763 222.29271Q28.206263 221.87083 27.550013 221.63646ZM25.846888 225.08958L25.846888 221.62083Q25.050013 221.68333 24.659388 222.01146Q24.050013 222.52708 24.050013 223.32396Q24.050013 224.05833 24.534388 224.55833Q25.018763 225.04271 25.846888 225.08958ZM29.550013 218.88646L23.331263 218.88646L23.331263 217.94896L24.206263 217.94896Q23.190638 217.26146 23.190638 215.96458Q23.190638 215.40208 23.393763 214.93333Q23.596888 214.44896 23.925013 214.21458Q24.253138 213.98021 24.690638 213.88646Q24.987513 213.83958 25.721888 213.83958L29.550013 213.83958L29.550013 214.88646L25.768763 214.88646Q25.112513 214.88646 24.800013 215.01146Q24.487513 215.13646 24.300013 215.44896Q24.096888 215.76146 24.096888 216.18333Q24.096888 216.85521 24.534388 217.35521Q24.956263 217.83958 26.143763 217.83958L29.550013 217.83958L29.550013 218.88646ZM28.612513 209.58958L29.534388 209.43333Q29.628138 209.88646 29.628138 210.23021Q29.628138 210.80833 29.456263 211.12083Q29.268763 211.43333 28.971888 211.57396Q28.675013 211.69896 27.721888 211.69896L24.143763 211.69896L24.143763 212.46458L23.331263 212.46458L23.331263 211.69896L21.784388 211.69896L21.159388 210.65208L23.331263 210.65208L23.331263 209.58958L24.143763 209.58958L24.143763 210.65208L27.784388 210.65208Q28.237513 210.65208 28.362513 210.60521Q28.487513 210.54271 28.565638 210.41771Q28.643763 210.29271 28.643763 210.05833Q28.643763 209.87083 28.612513 209.58958ZM26.440638 206.27708Q24.706263 206.27708 23.878138 205.32396Q23.190638 204.52708 23.190638 203.37083Q23.190638 202.08958 24.034388 201.27708Q24.862513 200.44896 26.346888 200.44896Q27.550013 200.44896 28.237513 200.80833Q28.925013 201.16771 29.315638 201.87083Q29.690638 202.55833 29.690638 203.37083Q29.690638 204.66771 28.862513 205.48021Q28.018763 206.27708 26.440638 206.27708ZM26.440638 205.19896Q27.628138 205.19896 28.221888 204.68333Q28.815638 204.15208 28.815638 203.37083Q28.815638 202.57396 28.221888 202.05833Q27.628138 201.54271 26.409388 201.54271Q25.253138 201.54271 24.659388 202.07396Q24.065638 202.58958 24.065638 203.37083Q24.065638 204.15208 24.659388 204.68333Q25.237513 205.19896 26.440638 205.19896ZM29.550013 198.88646L23.331263 198.88646L23.331263 197.94896L24.206263 197.94896Q23.190638 197.26146 23.190638 195.96458Q23.190638 195.40208 23.393763 194.93333Q23.596888 194.44896 23.925013 194.21458Q24.253138 193.98021 24.690638 193.88646Q24.987513 193.83958 25.721888 193.83958L29.550013 193.83958L29.550013 194.88646L25.768763 194.88646Q25.112513 194.88646 24.800013 195.01146Q24.487513 195.13646 24.300013 195.44896Q24.096888 195.76146 24.096888 196.18333Q24.096888 196.85521 24.534388 197.35521Q24.956263 197.83958 26.143763 197.83958L29.550013 197.83958L29.550013 198.88646ZM28.612513 186.58958L29.534388 186.43333Q29.628138 186.88646 29.628138 187.23021Q29.628138 187.80833 29.456263 188.12083Q29.268763 188.43333 28.971888 188.57396Q28.675013 188.69896 27.721888 188.69896L24.143763 188.69896L24.143763 189.46458L23.331263 189.46458L23.331263 188.69896L21.784388 188.69896L21.159388 187.65208L23.331263 187.65208L23.331263 186.58958L24.143763 186.58958L24.143763 187.65208L27.784388 187.65208Q28.237513 187.65208 28.362513 187.60521Q28.487513 187.54271 28.565638 187.41771Q28.643763 187.29271 28.643763 187.05833Q28.643763 186.87083 28.612513 186.58958ZM28.784388 181.82396Q29.284388 182.41771 29.487513 182.96458Q29.690638 183.49583 29.690638 184.12083Q29.690638 185.15208 29.190638 185.69896Q28.690638 186.24583 27.909388 186.24583Q27.456263 186.24583 27.081263 186.04271Q26.690638 185.83958 26.471888 185.49583Q26.237513 185.15208 26.128138 184.73021Q26.034388 184.43333 25.956263 183.79271Q25.815638 182.52708 25.596888 181.91771Q25.378138 181.91771 25.331263 181.91771Q24.675013 181.91771 24.409388 182.21458Q24.065638 182.62083 24.065638 183.41771Q24.065638 184.15208 24.331263 184.51146Q24.581263 184.87083 25.237513 185.04271L25.096888 186.07396Q24.440638 185.93333 24.034388 185.60521Q23.628138 185.27708 23.409388 184.66771Q23.190638 184.05833 23.190638 183.26146Q23.190638 182.46458 23.378138 181.96458Q23.565638 181.46458 23.846888 181.23021Q24.128138 180.99583 24.565638 180.90208Q24.831263 180.85521 25.534388 180.85521L26.940638 180.85521Q28.409388 180.85521 28.800013 180.79271Q29.190638 180.71458 29.550013 180.51146L29.550013 181.62083Q29.221888 181.77708 28.784388 181.82396ZM26.425013 181.91771Q26.659388 182.49583 26.831263 183.63646Q26.925013 184.29271 27.050013 184.55833Q27.159388 184.82396 27.378138 184.98021Q27.596888 185.12083 27.878138 185.12083Q28.300013 185.12083 28.581263 184.80833Q28.862513 184.48021 28.862513 183.87083Q28.862513 183.26146 28.596888 182.79271Q28.331263 182.30833 27.862513 182.08958Q27.503138 181.91771 26.815638 181.91771L26.425013 181.91771ZM27.690638 179.30833L27.534388 178.27708Q28.159388 178.18333 28.487513 177.79271Q28.815638 177.38646 28.815638 176.65208Q28.815638 175.93333 28.534388 175.58958Q28.237513 175.23021 27.831263 175.23021Q27.471888 175.23021 27.268763 175.54271Q27.128138 175.76146 26.909388 176.62083Q26.612513 177.77708 26.409388 178.23021Q26.190638 178.66771 25.815638 178.90208Q25.440638 179.13646 24.971888 179.13646Q24.565638 179.13646 24.206263 178.94896Q23.846888 178.76146 23.612513 178.43333Q23.440638 178.18333 23.315638 177.76146Q23.190638 177.33958 23.190638 176.83958Q23.190638 176.12083 23.409388 175.57396Q23.612513 175.01146 23.971888 174.74583Q24.331263 174.48021 24.925013 174.38646L25.065638 175.41771Q24.596888 175.48021 24.331263 175.82396Q24.050013 176.15208 24.050013 176.77708Q24.050013 177.49583 24.300013 177.80833Q24.534388 178.12083 24.862513 178.12083Q25.065638 178.12083 25.221888 177.99583Q25.393763 177.85521 25.503138 177.58958Q25.565638 177.43333 25.768763 176.65208Q26.081263 175.52708 26.268763 175.08958Q26.456263 174.65208 26.815638 174.40208Q27.175013 174.15208 27.721888 174.15208Q28.253138 174.15208 28.721888 174.46458Q29.175013 174.76146 29.440638 175.33958Q29.690638 175.91771 29.690638 176.65208Q29.690638 177.87083 29.190638 178.51146Q28.675013 179.13646 27.690638 179.30833ZM29.550013 171.88646L20.956263 171.88646L20.956263 170.82396L25.862513 170.82396L23.331263 168.33958L23.331263 166.96458L25.628138 169.35521L29.550013 166.73021L29.550013 168.02708L26.362513 170.08958L27.081263 170.82396L29.550013 170.82396L29.550013 171.88646ZM32.08126 160.87083Q30.971888 161.74583 29.503138 162.35521Q28.018763 162.94896 26.440638 162.94896Q25.050013 162.94896 23.768763 162.51146Q22.284388 161.98021 20.815638 160.87083L20.815638 160.12083Q22.034388 160.82396 22.550013 161.05833Q23.362513 161.41771 24.237513 161.62083Q25.331263 161.87083 26.440638 161.87083Q29.268763 161.87083 32.08126 160.12083L32.08126 160.87083ZM27.690638 159.30833L27.534388 158.27708Q28.159388 158.18333 28.487513 157.79271Q28.815638 157.38646 28.815638 156.65208Q28.815638 155.93333 28.534388 155.58958Q28.237513 155.23021 27.831263 155.23021Q27.471888 155.23021 27.268763 155.54271Q27.128138 155.76146 26.909388 156.62083Q26.612513 157.77708 26.409388 158.23021Q26.190638 158.66771 25.815638 158.90208Q25.440638 159.13646 24.971888 159.13646Q24.565638 159.13646 24.206263 158.94896Q23.846888 158.76146 23.612513 158.43333Q23.440638 158.18333 23.315638 157.76146Q23.190638 157.33958 23.190638 156.83958Q23.190638 156.12083 23.409388 155.57396Q23.612513 155.01146 23.971888 154.74583Q24.331263 154.48021 24.925013 154.38646L25.065638 155.41771Q24.596888 155.48021 24.331263 155.82396Q24.050013 156.15208 24.050013 156.77708Q24.050013 157.49583 24.300013 157.80833Q24.534388 158.12083 24.862513 158.12083Q25.065638 158.12083 25.221888 157.99583Q25.393763 157.85521 25.503138 157.58958Q25.565638 157.43333 25.768763 156.65208Q26.081263 155.52708 26.268763 155.08958Q26.456263 154.65208 26.815638 154.40208Q27.175013 154.15208 27.721888 154.15208Q28.253138 154.15208 28.721888 154.46458Q29.175013 154.76146 29.440638 155.33958Q29.690638 155.91771 29.690638 156.65208Q29.690638 157.87083 29.190638 158.51146Q28.675013 159.13646 27.690638 159.30833ZM27.550013 147.63646L27.675013 146.54271Q28.628138 146.79271 29.159388 147.49583Q29.690638 148.19896 29.690638 149.27708Q29.690638 150.63646 28.846888 151.44896Q28.003138 152.24583 26.487513 152.24583Q24.925013 152.24583 24.065638 151.43333Q23.190638 150.62083 23.190638 149.33958Q23.190638 148.08958 24.034388 147.30833Q24.878138 146.51146 26.425013 146.51146Q26.518763 146.51146 26.706263 146.51146L26.706263 151.15208Q27.737513 151.08958 28.284388 150.57396Q28.815638 150.05833 28.815638 149.27708Q28.815638 148.69896 28.518763 148.29271Q28.206263 147.87083 27.550013 147.63646ZM25.846888 151.08958L25.846888 147.62083Q25.050013 147.68333 24.659388 148.01146Q24.050013 148.52708 24.050013 149.32396Q24.050013 150.05833 24.534388 150.55833Q25.018763 151.04271 25.846888 151.08958ZM27.268763 140.82396L27.409388 139.79271Q28.471888 139.96458 29.081263 140.66771Q29.690638 141.37083 29.690638 142.38646Q29.690638 143.66771 28.862513 144.44896Q28.018763 145.21458 26.456263 145.21458Q25.456263 145.21458 24.706263 144.88646Q23.940638 144.54271 23.565638 143.87083Q23.190638 143.18333 23.190638 142.37083Q23.190638 141.37083 23.706263 140.73021Q24.206263 140.07396 25.159388 139.88646L25.315638 140.91771Q24.690638 141.05833 24.378138 141.43333Q24.050013 141.80833 24.050013 142.33958Q24.050013 143.13646 24.628138 143.63646Q25.190638 144.13646 26.425013 144.13646Q27.690638 144.13646 28.253138 143.65208Q28.815638 143.16771 28.815638 142.40208Q28.815638 141.77708 28.440638 141.37083Q28.065638 140.94896 27.268763 140.82396ZM26.440638 139.27708Q24.706263 139.27708 23.878138 138.32396Q23.190638 137.52708 23.190638 136.37083Q23.190638 135.08958 24.034388 134.27708Q24.862513 133.44896 26.346888 133.44896Q27.550013 133.44896 28.237513 133.80833Q28.925013 134.16771 29.315638 134.87083Q29.690638 135.55833 29.690638 136.37083Q29.690638 137.66771 28.862513 138.48021Q28.018763 139.27708 26.440638 139.27708ZM26.440638 138.19896Q27.628138 138.19896 28.221888 137.68333Q28.815638 137.15208 28.815638 136.37083Q28.815638 135.57396 28.221888 135.05833Q27.628138 134.54271 26.409388 134.54271Q25.253138 134.54271 24.659388 135.07396Q24.065638 135.58958 24.065638 136.37083Q24.065638 137.15208 24.659388 137.68333Q25.237513 138.19896 26.440638 138.19896ZM29.550013 131.88646L23.331263 131.88646L23.331263 130.94896L24.206263 130.94896Q23.190638 130.26146 23.190638 128.96458Q23.190638 128.40208 23.393763 127.933334Q23.596888 127.44896 23.925013 127.214584Q24.253138 126.98021 24.690638 126.88646Q24.987513 126.839584 25.721888 126.839584L29.550013 126.839584L29.550013 127.88646L25.768763 127.88646Q25.112513 127.88646 24.800013 128.01146Q24.487513 128.13646 24.300013 128.44896Q24.096888 128.76146 24.096888 129.18333Q24.096888 129.85521 24.534388 130.35521Q24.956263 130.83958 26.143763 130.83958L29.550013 130.83958L29.550013 131.88646ZM29.550013 120.85521L28.768763 120.85521Q29.690638 121.44896 29.690638 122.589584Q29.690638 123.339584 29.284388 123.964584Q28.862513 124.589584 28.128138 124.933334Q27.393763 125.277084 26.440638 125.277084Q25.518763 125.277084 24.753138 124.964584Q23.987513 124.652084 23.596888 124.027084Q23.190638 123.402084 23.190638 122.63646Q23.190638 122.07396 23.425013 121.63646Q23.659388 121.19896 24.034388 120.91771L20.956263 120.91771L20.956263 119.870834L29.550013 119.870834L29.550013 120.85521ZM26.440638 124.183334Q27.643763 124.183334 28.237513 123.683334Q28.815638 123.183334 28.815638 122.495834Q28.815638 121.808334 28.253138 121.32396Q27.690638 120.839584 26.534388 120.839584Q25.253138 120.839584 24.659388 121.339584Q24.065638 121.82396 24.065638 122.54271Q24.065638 123.245834 24.643763 123.714584Q25.206263 124.183334 26.440638 124.183334ZM27.690638 118.308334L27.534388 117.277084Q28.159388 117.183334 28.487513 116.79271Q28.815638 116.38646 28.815638 115.652084Q28.815638 114.933334 28.534388 114.589584Q28.237513 114.23021 27.831263 114.23021Q27.471888 114.23021 27.268763 114.54271Q27.128138 114.76146 26.909388 115.620834Q26.612513 116.777084 26.409388 117.23021Q26.190638 117.66771 25.815638 117.902084Q25.440638 118.13646 24.971888 118.13646Q24.565638 118.13646 24.206263 117.94896Q23.846888 117.76146 23.612513 117.433334Q23.440638 117.183334 23.315638 116.76146Q23.190638 116.339584 23.190638 115.839584Q23.190638 115.120834 23.409388 114.57396Q23.612513 114.01146 23.971888 113.745834Q24.331263 113.48021 24.925013 113.38646L25.065638 114.41771Q24.596888 114.48021 24.331263 114.82396Q24.050013 115.152084 24.050013 115.777084Q24.050013 116.495834 24.300013 116.808334Q24.534388 117.120834 24.862513 117.120834Q25.065638 117.120834 25.221888 116.995834Q25.393763 116.85521 25.503138 116.589584Q25.565638 116.433334 25.768763 115.652084Q26.081263 114.527084 26.268763 114.089584Q26.456263 113.652084 26.815638 113.402084Q27.175013 113.152084 27.721888 113.152084Q28.253138 113.152084 28.721888 113.464584Q29.175013 113.76146 29.440638 114.339584Q29.690638 114.91771 29.690638 115.652084Q29.690638 116.870834 29.190638 117.51146Q28.675013 118.13646 27.690638 118.308334ZM32.08126 110.19896L32.08126 110.94896Q29.268763 109.19896 26.440638 109.19896Q25.346888 109.19896 24.253138 109.44896Q23.378138 109.652084 22.565638 110.01146Q22.050013 110.245834 20.815638 110.94896L20.815638 110.19896Q22.284388 109.10521 23.768763 108.57396Q25.050013 108.120834 26.440638 108.120834Q28.018763 108.120834 29.503138 108.73021Q30.971888 109.339584 32.08126 110.19896Z" fill-rule="nonzero"/><path fill="#000000" d="M65.05 300.21564Q65.05 298.6844 65.3625 297.7625Q65.675 296.825 66.28438 296.325Q66.90938 295.825 67.84688 295.825Q68.53438 295.825 69.05 296.10626Q69.58125 296.3875 69.925 296.91876Q70.26875 297.4344 70.45625 298.1844Q70.64375 298.9344 70.64375 300.21564Q70.64375 301.73126 70.33125 302.65314Q70.03438 303.575 69.40938 304.09064Q68.8 304.59064 67.84688 304.59064Q66.6125 304.59064 65.89375 303.7Q65.05 302.6375 65.05 300.21564ZM66.12813 300.21564Q66.12813 302.325 66.62813 303.02814Q67.12813 303.73126 67.84688 303.73126Q68.58125 303.73126 69.06563 303.02814Q69.56563 302.325 69.56563 300.21564Q69.56563 298.09064 69.06563 297.40314Q68.58125 296.7 67.83125 296.7Q67.1125 296.7 66.675 297.3094Q66.12813 298.09064 66.12813 300.21564Z" fill-rule="nonzero"/><path fill="#000000" d="M62.01875 277.9463L60.971874 277.9463L60.971874 271.22754Q60.58125 271.5869 59.95625 271.9619Q59.346874 272.3213 58.8625 272.49316L58.8625 271.47754Q59.7375 271.05566 60.39375 270.47754Q61.065624 269.8838 61.346874 269.3213L62.01875 269.3213L62.01875 277.9463ZM65.05 273.7119Q65.05 272.18066 65.3625 271.2588Q65.675 270.3213 66.28438 269.8213Q66.90938 269.3213 67.84688 269.3213Q68.53438 269.3213 69.05 269.60254Q69.58125 269.8838 69.925 270.41504Q70.26875 270.93066 70.45625 271.68066Q70.64375 272.43066 70.64375 273.7119Q70.64375 275.22754 70.33125 276.1494Q70.03438 277.0713 69.40938 277.5869Q68.8 278.0869 67.84688 278.0869Q66.6125 278.0869 65.89375 277.1963Q65.05 276.1338 65.05 273.7119ZM66.12813 273.7119Q66.12813 275.8213 66.62813 276.5244Q67.12813 277.22754 67.84688 277.22754Q68.58125 277.22754 69.06563 276.5244Q69.56563 275.8213 69.56563 273.7119Q69.56563 271.5869 69.06563 270.8994Q68.58125 270.1963 67.83125 270.1963Q67.1125 270.1963 66.675 270.80566Q66.12813 271.5869 66.12813 273.7119Z" fill-rule="nonzero"/><path fill="#000000" d="M63.596874 250.42697L63.596874 251.4426L57.909374 251.4426Q57.909374 251.0676 58.034374 250.70822Q58.253124 250.1301 58.721874 249.5676Q59.20625 249.0051 60.1125 248.27072Q61.51875 247.11447 62.003124 246.4426Q62.503124 245.77072 62.503124 245.17697Q62.503124 244.55197 62.05 244.1301Q61.596874 243.6926 60.878124 243.6926Q60.1125 243.6926 59.659374 244.14572Q59.20625 244.59885 59.190624 245.41135L58.1125 245.30197Q58.221874 244.08322 58.940624 243.45822Q59.675 242.8176 60.909374 242.8176Q62.14375 242.8176 62.8625 243.5051Q63.58125 244.1926 63.58125 245.20822Q63.58125 245.72385 63.3625 246.22385Q63.159374 246.70822 62.659374 247.27072Q62.175 247.8176 61.05 248.77072Q60.096874 249.5676 59.815624 249.86447Q59.55 250.14572 59.378124 250.42697L63.596874 250.42697ZM65.05 247.20822Q65.05 245.67697 65.3625 244.7551Q65.675 243.8176 66.28438 243.3176Q66.90938 242.8176 67.84688 242.8176Q68.53438 242.8176 69.05 243.09885Q69.58125 243.3801 69.925 243.91135Q70.26875 244.42697 70.45625 245.17697Q70.64375 245.92697 70.64375 247.20822Q70.64375 248.72385 70.33125 249.64572Q70.03438 250.5676 69.40938 251.08322Q68.8 251.58322 67.84688 251.58322Q66.6125 251.58322 65.89375 250.6926Q65.05 249.6301 65.05 247.20822ZM66.12813 247.20822Q66.12813 249.3176 66.62813 250.02072Q67.12813 250.72385 67.84688 250.72385Q68.58125 250.72385 69.06563 250.02072Q69.56563 249.3176 69.56563 247.20822Q69.56563 245.08322 69.06563 244.39572Q68.58125 243.6926 67.83125 243.6926Q67.1125 243.6926 66.675 244.30197Q66.12813 245.08322 66.12813 247.20822Z" fill-rule="nonzero"/><path fill="#000000" d="M58.05 222.67326L59.1125 222.53264Q59.284374 223.42326 59.721874 223.82951Q60.159374 224.22014 60.784374 224.22014Q61.534374 224.22014 62.05 223.70451Q62.565624 223.18889 62.565624 222.42326Q62.565624 221.70451 62.08125 221.23576Q61.6125 220.75139 60.878124 220.75139Q60.58125 220.75139 60.128124 220.87639L60.253124 219.93889Q60.3625 219.95451 60.425 219.95451Q61.096874 219.95451 61.628124 219.61076Q62.175 219.25139 62.175 218.51701Q62.175 217.93889 61.784374 217.56389Q61.39375 217.17326 60.76875 217.17326Q60.159374 217.17326 59.7375 217.56389Q59.33125 217.95451 59.221874 218.72014L58.159374 218.53264Q58.346874 217.48576 59.034374 216.90764Q59.721874 216.31389 60.7375 216.31389Q61.440624 216.31389 62.034374 216.62639Q62.628124 216.92326 62.940624 217.43889Q63.253124 217.95451 63.253124 218.54826Q63.253124 219.09514 62.95625 219.56389Q62.659374 220.01701 62.08125 220.28264Q62.83125 220.45451 63.253124 221.01701Q63.675 221.56389 63.675 222.40764Q63.675 223.53264 62.846874 224.31389Q62.034374 225.09514 60.784374 225.09514Q59.659374 225.09514 58.909374 224.42326Q58.159374 223.73576 58.05 222.67326ZM65.05 220.70451Q65.05 219.17326 65.3625 218.25139Q65.675 217.31389 66.28438 216.81389Q66.90938 216.31389 67.84688 216.31389Q68.53438 216.31389 69.05 216.59514Q69.58125 216.87639 69.925 217.40764Q70.26875 217.92326 70.45625 218.67326Q70.64375 219.42326 70.64375 220.70451Q70.64375 222.22014 70.33125 223.14201Q70.03438 224.06389 69.40938 224.57951Q68.8 225.07951 67.84688 225.07951Q66.6125 225.07951 65.89375 224.18889Q65.05 223.12639 65.05 220.70451ZM66.12813 220.70451Q66.12813 222.81389 66.62813 223.51701Q67.12813 224.22014 67.84688 224.22014Q68.58125 224.22014 69.06563 223.51701Q69.56563 222.81389 69.56563 220.70451Q69.56563 218.57951 69.06563 217.89201Q68.58125 217.18889 67.83125 217.18889Q67.1125 217.18889 66.675 217.79826Q66.12813 218.57951 66.12813 220.70451Z" fill-rule="nonzero"/><path fill="#000000" d="M61.425 198.43518L61.425 196.37268L57.70625 196.37268L57.70625 195.40393L61.628124 189.84143L62.4875 189.84143L62.4875 195.40393L63.64375 195.40393L63.64375 196.37268L62.4875 196.37268L62.4875 198.43518L61.425 198.43518ZM61.425 195.40393L61.425 191.54456L58.7375 195.40393L61.425 195.40393ZM65.05 194.2008Q65.05 192.66956 65.3625 191.74768Q65.675 190.81018 66.28438 190.31018Q66.90938 189.81018 67.84688 189.81018Q68.53438 189.81018 69.05 190.09143Q69.58125 190.37268 69.925 190.90393Q70.26875 191.41956 70.45625 192.16956Q70.64375 192.91956 70.64375 194.2008Q70.64375 195.71643 70.33125 196.6383Q70.03438 197.56018 69.40938 198.0758Q68.8 198.5758 67.84688 198.5758Q66.6125 198.5758 65.89375 197.68518Q65.05 196.62268 65.05 194.2008ZM66.12813 194.2008Q66.12813 196.31018 66.62813 197.0133Q67.12813 197.71643 67.84688 197.71643Q68.58125 197.71643 69.06563 197.0133Q69.56563 196.31018 69.56563 194.2008Q69.56563 192.0758 69.06563 191.3883Q68.58125 190.68518 67.83125 190.68518Q67.1125 190.68518 66.675 191.29456Q66.12813 192.0758 66.12813 194.2008Z" fill-rule="nonzero"/><path fill="#000000" d="M58.05 169.68149L59.159374 169.58774Q59.284374 170.40024 59.721874 170.80649Q60.175 171.21274 60.815624 171.21274Q61.565624 171.21274 62.096874 170.63461Q62.628124 170.05649 62.628124 169.11899Q62.628124 168.21274 62.1125 167.69711Q61.6125 167.16586 60.784374 167.16586Q60.284374 167.16586 59.8625 167.40024Q59.45625 167.63461 59.221874 167.99399L58.2375 167.86899L59.065624 163.46274L63.346874 163.46274L63.346874 164.46274L59.909374 164.46274L59.45625 166.77524Q60.221874 166.22836 61.065624 166.22836Q62.190624 166.22836 62.95625 167.00961Q63.7375 167.79086 63.7375 169.02524Q63.7375 170.18149 63.065624 171.04086Q62.2375 172.07211 60.815624 172.07211Q59.64375 172.07211 58.89375 171.41586Q58.159374 170.75961 58.05 169.68149ZM65.05 167.69711Q65.05 166.16586 65.3625 165.24399Q65.675 164.30649 66.28438 163.80649Q66.90938 163.30649 67.84688 163.30649Q68.53438 163.30649 69.05 163.58774Q69.58125 163.86899 69.925 164.40024Q70.26875 164.91586 70.45625 165.66586Q70.64375 166.41586 70.64375 167.69711Q70.64375 169.21274 70.33125 170.13461Q70.03438 171.05649 69.40938 171.57211Q68.8 172.07211 67.84688 172.07211Q66.6125 172.07211 65.89375 171.18149Q65.05 170.11899 65.05 167.69711ZM66.12813 167.69711Q66.12813 169.80649 66.62813 170.50961Q67.12813 171.21274 67.84688 171.21274Q68.58125 171.21274 69.06563 170.50961Q69.56563 169.80649 69.56563 167.69711Q69.56563 165.57211 69.06563 164.88461Q68.58125 164.18149 67.83125 164.18149Q67.1125 164.18149 66.675 164.79086Q66.12813 165.57211 66.12813 167.69711Z" fill-rule="nonzero"/><path fill="#000000" d="M63.51875 138.9434L62.471874 139.02153Q62.33125 138.39653 62.08125 138.11528Q61.64375 137.66216 61.01875 137.66216Q60.51875 137.66216 60.128124 137.9434Q59.64375 138.3184 59.346874 139.02153Q59.065624 139.70903 59.05 140.99028Q59.425 140.41216 59.971874 140.1309Q60.534374 139.84966 61.14375 139.84966Q62.190624 139.84966 62.925 140.6309Q63.675 141.41216 63.675 142.6309Q63.675 143.4434 63.315624 144.14653Q62.971874 144.83403 62.3625 145.20903Q61.753124 145.5684 60.9875 145.5684Q59.659374 145.5684 58.83125 144.59966Q58.003124 143.6309 58.003124 141.41216Q58.003124 138.91216 58.925 137.78716Q59.721874 136.80278 61.08125 136.80278Q62.096874 136.80278 62.7375 137.3809Q63.39375 137.9434 63.51875 138.9434ZM59.221874 142.64653Q59.221874 143.1934 59.440624 143.6934Q59.675 144.17778 60.08125 144.4434Q60.503124 144.70903 60.971874 144.70903Q61.628124 144.70903 62.1125 144.17778Q62.596874 143.6309 62.596874 142.70903Q62.596874 141.8184 62.1125 141.30278Q61.64375 140.78716 60.925 140.78716Q60.20625 140.78716 59.70625 141.30278Q59.221874 141.8184 59.221874 142.64653ZM65.05 141.1934Q65.05 139.66216 65.3625 138.74028Q65.675 137.80278 66.28438 137.30278Q66.90938 136.80278 67.84688 136.80278Q68.53438 136.80278 69.05 137.08403Q69.58125 137.36528 69.925 137.89653Q70.26875 138.41216 70.45625 139.16216Q70.64375 139.91216 70.64375 141.1934Q70.64375 142.70903 70.33125 143.6309Q70.03438 144.55278 69.40938 145.0684Q68.8 145.5684 67.84688 145.5684Q66.6125 145.5684 65.89375 144.67778Q65.05 143.61528 65.05 141.1934ZM66.12813 141.1934Q66.12813 143.30278 66.62813 144.0059Q67.12813 144.70903 67.84688 144.70903Q68.58125 144.70903 69.06563 144.0059Q69.56563 143.30278 69.56563 141.1934Q69.56563 139.0684 69.06563 138.3809Q68.58125 137.67778 67.83125 137.67778Q67.1125 137.67778 66.675 138.28716Q66.12813 139.0684 66.12813 141.1934Z" fill-rule="nonzero"/><path fill="#000000" d="M58.1125 111.45532L58.1125 110.4397L63.675 110.4397L63.675 111.26782Q62.8625 112.14282 62.05 113.59595Q61.253124 115.03345 60.815624 116.5647Q60.4875 117.64282 60.409374 118.92407L59.315624 118.92407Q59.33125 117.90845 59.70625 116.47095Q60.096874 115.03345 60.8 113.70532Q61.51875 112.3772 62.33125 111.45532L58.1125 111.45532ZM65.05 114.6897Q65.05 113.15845 65.3625 112.23657Q65.675 111.29907 66.28438 110.79907Q66.90938 110.29907 67.84688 110.29907Q68.53438 110.29907 69.05 110.58032Q69.58125 110.86157 69.925 111.39282Q70.26875 111.90845 70.45625 112.65845Q70.64375 113.40845 70.64375 114.6897Q70.64375 116.20532 70.33125 117.1272Q70.03438 118.04907 69.40938 118.5647Q68.8 119.0647 67.84688 119.0647Q66.6125 119.0647 65.89375 118.17407Q65.05 117.11157 65.05 114.6897ZM66.12813 114.6897Q66.12813 116.79907 66.62813 117.5022Q67.12813 118.20532 67.84688 118.20532Q68.58125 118.20532 69.06563 117.5022Q69.56563 116.79907 69.56563 114.6897Q69.56563 112.5647 69.06563 111.8772Q68.58125 111.17407 67.83125 111.17407Q67.1125 111.17407 66.675 111.78345Q66.12813 112.5647 66.12813 114.6897Z" fill-rule="nonzero"/><path fill="#000000" d="M59.675 87.76412Q59.01875 87.51412 58.690624 87.07662Q58.378124 86.6235 58.378124 86.01412Q58.378124 85.07662 59.05 84.436Q59.7375 83.79537 60.846874 83.79537Q61.971874 83.79537 62.659374 84.45162Q63.346874 85.10787 63.346874 86.04537Q63.346874 86.63912 63.034374 87.07662Q62.721874 87.51412 62.08125 87.76412Q62.878124 88.01412 63.284374 88.59225Q63.690624 89.17037 63.690624 89.96725Q63.690624 91.061 62.909374 91.811Q62.14375 92.561 60.8625 92.561Q59.596874 92.561 58.815624 91.811Q58.034374 91.061 58.034374 89.936Q58.034374 89.09225 58.45625 88.52975Q58.89375 87.96725 59.675 87.76412ZM59.45625 85.96725Q59.45625 86.57662 59.846874 86.96725Q60.253124 87.35787 60.878124 87.35787Q61.4875 87.35787 61.878124 86.98287Q62.26875 86.59225 62.26875 86.02975Q62.26875 85.45162 61.8625 85.061Q61.45625 84.65475 60.8625 84.65475Q60.253124 84.65475 59.846874 85.04537Q59.45625 85.436 59.45625 85.96725ZM59.128124 89.936Q59.128124 90.38912 59.33125 90.811Q59.55 91.23287 59.971874 91.46725Q60.39375 91.70162 60.878124 91.70162Q61.628124 91.70162 62.1125 91.21725Q62.6125 90.73287 62.6125 89.98287Q62.6125 89.21725 62.1125 88.71725Q61.6125 88.21725 60.846874 88.21725Q60.096874 88.21725 59.6125 88.71725Q59.128124 89.20162 59.128124 89.936ZM65.05 88.186Q65.05 86.65475 65.3625 85.73287Q65.675 84.79537 66.28438 84.29537Q66.90938 83.79537 67.84688 83.79537Q68.53438 83.79537 69.05 84.07662Q69.58125 84.35787 69.925 84.88912Q70.26875 85.40475 70.45625 86.15475Q70.64375 86.90475 70.64375 88.186Q70.64375 89.70162 70.33125 90.6235Q70.03438 91.54537 69.40938 92.061Q68.8 92.561 67.84688 92.561Q66.6125 92.561 65.89375 91.67037Q65.05 90.60787 65.05 88.186ZM66.12813 88.186Q66.12813 90.29537 66.62813 90.9985Q67.12813 91.70162 67.84688 91.70162Q68.58125 91.70162 69.06563 90.9985Q69.56563 90.29537 69.56563 88.186Q69.56563 86.061 69.06563 85.3735Q68.58125 84.67037 67.83125 84.67037Q67.1125 84.67037 66.675 85.27975Q66.12813 86.061 66.12813 88.186Z" fill-rule="nonzero"/><path fill="#000000" d="M58.20625 63.93229L59.221874 63.83854Q59.346874 64.55729 59.70625 64.885414Q60.08125 65.197914 60.64375 65.197914Q61.128124 65.197914 61.4875 64.979164Q61.8625 64.74479 62.096874 64.385414Q62.33125 64.010414 62.4875 63.385414Q62.64375 62.74479 62.64375 62.08854Q62.64375 62.010414 62.64375 61.86979Q62.33125 62.36979 61.784374 62.697914Q61.2375 63.010414 60.596874 63.010414Q59.51875 63.010414 58.784374 62.24479Q58.05 61.46354 58.05 60.197914Q58.05 58.885414 58.815624 58.08854Q59.596874 57.291664 60.753124 57.291664Q61.58125 57.291664 62.26875 57.74479Q62.971874 58.197914 63.33125 59.041664Q63.690624 59.86979 63.690624 61.447914Q63.690624 63.08854 63.33125 64.072914Q62.9875 65.041664 62.26875 65.55729Q61.565624 66.05729 60.628124 66.05729Q59.6125 66.05729 58.971874 65.510414Q58.33125 64.947914 58.20625 63.93229ZM62.51875 60.135414Q62.51875 59.229164 62.034374 58.697914Q61.565624 58.166664 60.878124 58.166664Q60.175 58.166664 59.64375 58.74479Q59.128124 59.30729 59.128124 60.229164Q59.128124 61.041664 59.628124 61.55729Q60.128124 62.072914 60.846874 62.072914Q61.58125 62.072914 62.05 61.55729Q62.51875 61.041664 62.51875 60.135414ZM65.05 61.68229Q65.05 60.15104 65.3625 59.229164Q65.675 58.291664 66.28438 57.791664Q66.90938 57.291664 67.84688 57.291664Q68.53438 57.291664 69.05 57.572914Q69.58125 57.854164 69.925 58.385414Q70.26875 58.90104 70.45625 59.65104Q70.64375 60.40104 70.64375 61.68229Q70.64375 63.197914 70.33125 64.11979Q70.03438 65.041664 69.40938 65.55729Q68.8 66.05729 67.84688 66.05729Q66.6125 66.05729 65.89375 65.166664Q65.05 64.104164 65.05 61.68229ZM66.12813 61.68229Q66.12813 63.791664 66.62813 64.49479Q67.12813 65.197914 67.84688 65.197914Q68.58125 65.197914 69.06563 64.49479Q69.56563 63.791664 69.56563 61.68229Q69.56563 59.55729 69.06563 58.86979Q68.58125 58.166664 67.83125 58.166664Q67.1125 58.166664 66.675 58.77604Q66.12813 59.55729 66.12813 61.68229Z" fill-rule="nonzero"/><path fill="#000000" d="M125.73554 317.45L125.73554 309.8719L122.90742 309.8719L122.90742 308.85626L129.71991 308.85626L129.71991 309.8719L126.87617 309.8719L126.87617 317.45L125.73554 317.45ZM134.48553 316.6844Q133.89178 317.1844 133.34491 317.3875Q132.81366 317.59064 132.18866 317.59064Q131.15741 317.59064 130.61053 317.09064Q130.06366 316.59064 130.06366 315.8094Q130.06366 315.35626 130.26678 314.98126Q130.46991 314.59064 130.81366 314.3719Q131.15741 314.1375 131.57928 314.02814Q131.87616 313.9344 132.51678 313.85626Q133.78241 313.71564 134.39178 313.4969Q134.39178 313.27814 134.39178 313.23126Q134.39178 312.575 134.09491 312.3094Q133.68866 311.96564 132.89178 311.96564Q132.15741 311.96564 131.79803 312.23126Q131.43866 312.48126 131.26678 313.1375L130.23553 312.9969Q130.37616 312.34064 130.70428 311.9344Q131.03241 311.52814 131.64178 311.3094Q132.25116 311.09064 133.04803 311.09064Q133.84491 311.09064 134.34491 311.27814Q134.84491 311.46564 135.07928 311.7469Q135.31366 312.02814 135.40741 312.46564Q135.45428 312.73126 135.45428 313.4344L135.45428 314.84064Q135.45428 316.3094 135.51678 316.7Q135.59491 317.09064 135.79803 317.45L134.68866 317.45Q134.53241 317.1219 134.48553 316.6844ZM134.39178 314.325Q133.81366 314.5594 132.67303 314.73126Q132.01678 314.825 131.75116 314.95Q131.48553 315.0594 131.32928 315.27814Q131.18866 315.4969 131.18866 315.77814Q131.18866 316.2 131.50116 316.48126Q131.82928 316.7625 132.43866 316.7625Q133.04803 316.7625 133.51678 316.4969Q134.00116 316.23126 134.21991 315.7625Q134.39178 315.40314 134.39178 314.71564L134.39178 314.325ZM137.00116 315.59064L138.03241 315.4344Q138.12616 316.0594 138.51678 316.3875Q138.92303 316.71564 139.65741 316.71564Q140.37616 316.71564 140.71991 316.4344Q141.07928 316.1375 141.07928 315.73126Q141.07928 315.3719 140.76678 315.16876Q140.54803 315.02814 139.68866 314.8094Q138.53241 314.5125 138.07928 314.3094Q137.64178 314.09064 137.40741 313.71564Q137.17303 313.34064 137.17303 312.8719Q137.17303 312.46564 137.36053 312.10626Q137.54803 311.7469 137.87616 311.5125Q138.12616 311.34064 138.54803 311.21564Q138.96991 311.09064 139.46991 311.09064Q140.18866 311.09064 140.73553 311.3094Q141.29803 311.5125 141.56366 311.8719Q141.82928 312.23126 141.92303 312.825L140.89178 312.96564Q140.82928 312.4969 140.48553 312.23126Q140.15741 311.95 139.53241 311.95Q138.81366 311.95 138.50116 312.2Q138.18866 312.4344 138.18866 312.7625Q138.18866 312.96564 138.31366 313.1219Q138.45428 313.29376 138.71991 313.40314Q138.87616 313.46564 139.65741 313.66876Q140.78241 313.98126 141.21991 314.16876Q141.65741 314.35626 141.90741 314.71564Q142.15741 315.075 142.15741 315.6219Q142.15741 316.15314 141.84491 316.6219Q141.54803 317.075 140.96991 317.34064Q140.39178 317.59064 139.65741 317.59064Q138.43866 317.59064 137.79803 317.09064Q137.17303 316.575 137.00116 315.59064ZM144.42303 317.45L144.42303 308.85626L145.48553 308.85626L145.48553 313.7625L147.96991 311.23126L149.34491 311.23126L146.95428 313.52814L149.57928 317.45L148.28241 317.45L146.21991 314.2625L145.48553 314.98126L145.48553 317.45L144.42303 317.45ZM157.09491 317.45L156.04803 317.45L156.04803 310.73126Q155.65741 311.09064 155.03241 311.46564Q154.42303 311.825 153.93866 311.9969L153.93866 310.98126Q154.81366 310.5594 155.46991 309.98126Q156.14178 309.3875 156.42303 308.825L157.09491 308.825L157.09491 317.45Z" fill-rule="nonzero"/><path fill="#000000" d="M219.92245 317.45L219.92245 309.8719L217.09433 309.8719L217.09433 308.85626L223.90683 308.85626L223.90683 309.8719L221.06308 309.8719L221.06308 317.45L219.92245 317.45ZM228.67245 316.6844Q228.0787 317.1844 227.53183 317.3875Q227.00058 317.59064 226.37558 317.59064Q225.34433 317.59064 224.79745 317.09064Q224.25058 316.59064 224.25058 315.8094Q224.25058 315.35626 224.4537 314.98126Q224.65683 314.59064 225.00058 314.3719Q225.34433 314.1375 225.7662 314.02814Q226.06308 313.9344 226.7037 313.85626Q227.96933 313.71564 228.5787 313.4969Q228.5787 313.27814 228.5787 313.23126Q228.5787 312.575 228.28183 312.3094Q227.87558 311.96564 227.0787 311.96564Q226.34433 311.96564 225.98495 312.23126Q225.62558 312.48126 225.4537 313.1375L224.42245 312.9969Q224.56308 312.34064 224.8912 311.9344Q225.21933 311.52814 225.8287 311.3094Q226.43808 311.09064 227.23495 311.09064Q228.03183 311.09064 228.53183 311.27814Q229.03183 311.46564 229.2662 311.7469Q229.50058 312.02814 229.59433 312.46564Q229.6412 312.73126 229.6412 313.4344L229.6412 314.84064Q229.6412 316.3094 229.7037 316.7Q229.78183 317.09064 229.98495 317.45L228.87558 317.45Q228.71933 317.1219 228.67245 316.6844ZM228.5787 314.325Q228.00058 314.5594 226.85995 314.73126Q226.2037 314.825 225.93808 314.95Q225.67245 315.0594 225.5162 315.27814Q225.37558 315.4969 225.37558 315.77814Q225.37558 316.2 225.68808 316.48126Q226.0162 316.7625 226.62558 316.7625Q227.23495 316.7625 227.7037 316.4969Q228.18808 316.23126 228.40683 315.7625Q228.5787 315.40314 228.5787 314.71564L228.5787 314.325ZM231.18808 315.59064L232.21933 315.4344Q232.31308 316.0594 232.7037 316.3875Q233.10995 316.71564 233.84433 316.71564Q234.56308 316.71564 234.90683 316.4344Q235.2662 316.1375 235.2662 315.73126Q235.2662 315.3719 234.9537 315.16876Q234.73495 315.02814 233.87558 314.8094Q232.71933 314.5125 232.2662 314.3094Q231.8287 314.09064 231.59433 313.71564Q231.35995 313.34064 231.35995 312.8719Q231.35995 312.46564 231.54745 312.10626Q231.73495 311.7469 232.06308 311.5125Q232.31308 311.34064 232.73495 311.21564Q233.15683 311.09064 233.65683 311.09064Q234.37558 311.09064 234.92245 311.3094Q235.48495 311.5125 235.75058 311.8719Q236.0162 312.23126 236.10995 312.825L235.0787 312.96564Q235.0162 312.4969 234.67245 312.23126Q234.34433 311.95 233.71933 311.95Q233.00058 311.95 232.68808 312.2Q232.37558 312.4344 232.37558 312.7625Q232.37558 312.96564 232.50058 313.1219Q232.6412 313.29376 232.90683 313.40314Q233.06308 313.46564 233.84433 313.66876Q234.96933 313.98126 235.40683 314.16876Q235.84433 314.35626 236.09433 314.71564Q236.34433 315.075 236.34433 315.6219Q236.34433 316.15314 236.03183 316.6219Q235.73495 317.075 235.15683 317.34064Q234.5787 317.59064 233.84433 317.59064Q232.62558 317.59064 231.98495 317.09064Q231.35995 316.575 231.18808 315.59064ZM238.60995 317.45L238.60995 308.85626L239.67245 308.85626L239.67245 313.7625L242.15683 311.23126L243.53183 311.23126L241.1412 313.52814L243.7662 317.45L242.46933 317.45L240.40683 314.2625L239.67245 314.98126L239.67245 317.45L238.60995 317.45ZM252.85995 316.4344L252.85995 317.45L247.17245 317.45Q247.17245 317.075 247.29745 316.71564Q247.5162 316.1375 247.98495 315.575Q248.46933 315.0125 249.37558 314.27814Q250.78183 313.1219 251.2662 312.45Q251.7662 311.77814 251.7662 311.1844Q251.7662 310.5594 251.31308 310.1375Q250.85995 309.7 250.1412 309.7Q249.37558 309.7 248.92245 310.15314Q248.46933 310.60626 248.4537 311.41876L247.37558 311.3094Q247.48495 310.09064 248.2037 309.46564Q248.93808 308.825 250.17245 308.825Q251.40683 308.825 252.12558 309.5125Q252.84433 310.2 252.84433 311.21564Q252.84433 311.73126 252.62558 312.23126Q252.42245 312.71564 251.92245 313.27814Q251.43808 313.825 250.31308 314.77814Q249.35995 315.575 249.0787 315.8719Q248.81308 316.15314 248.6412 316.4344L252.85995 316.4344Z" fill-rule="nonzero"/><path fill="#000000" d="M314.10938 317.45L314.10938 309.8719L311.28125 309.8719L311.28125 308.85626L318.09375 308.85626L318.09375 309.8719L315.25 309.8719L315.25 317.45L314.10938 317.45ZM322.85938 316.6844Q322.26562 317.1844 321.71875 317.3875Q321.1875 317.59064 320.5625 317.59064Q319.53125 317.59064 318.98438 317.09064Q318.4375 316.59064 318.4375 315.8094Q318.4375 315.35626 318.64062 314.98126Q318.84375 314.59064 319.1875 314.3719Q319.53125 314.1375 319.95312 314.02814Q320.25 313.9344 320.89062 313.85626Q322.15625 313.71564 322.76562 313.4969Q322.76562 313.27814 322.76562 313.23126Q322.76562 312.575 322.46875 312.3094Q322.0625 311.96564 321.26562 311.96564Q320.53125 311.96564 320.17188 312.23126Q319.8125 312.48126 319.64062 313.1375L318.60938 312.9969Q318.75 312.34064 319.07812 311.9344Q319.40625 311.52814 320.01562 311.3094Q320.625 311.09064 321.42188 311.09064Q322.21875 311.09064 322.71875 311.27814Q323.21875 311.46564 323.45312 311.7469Q323.6875 312.02814 323.78125 312.46564Q323.82812 312.73126 323.82812 313.4344L323.82812 314.84064Q323.82812 316.3094 323.89062 316.7Q323.96875 317.09064 324.17188 317.45L323.0625 317.45Q322.90625 317.1219 322.85938 316.6844ZM322.76562 314.325Q322.1875 314.5594 321.04688 314.73126Q320.39062 314.825 320.125 314.95Q319.85938 315.0594 319.70312 315.27814Q319.5625 315.4969 319.5625 315.77814Q319.5625 316.2 319.875 316.48126Q320.20312 316.7625 320.8125 316.7625Q321.42188 316.7625 321.89062 316.4969Q322.375 316.23126 322.59375 315.7625Q322.76562 315.40314 322.76562 314.71564L322.76562 314.325ZM325.375 315.59064L326.40625 315.4344Q326.5 316.0594 326.89062 316.3875Q327.29688 316.71564 328.03125 316.71564Q328.75 316.71564 329.09375 316.4344Q329.45312 316.1375 329.45312 315.73126Q329.45312 315.3719 329.14062 315.16876Q328.92188 315.02814 328.0625 314.8094Q326.90625 314.5125 326.45312 314.3094Q326.01562 314.09064 325.78125 313.71564Q325.54688 313.34064 325.54688 312.8719Q325.54688 312.46564 325.73438 312.10626Q325.92188 311.7469 326.25 311.5125Q326.5 311.34064 326.92188 311.21564Q327.34375 311.09064 327.84375 311.09064Q328.5625 311.09064 329.10938 311.3094Q329.67188 311.5125 329.9375 311.8719Q330.20312 312.23126 330.29688 312.825L329.26562 312.96564Q329.20312 312.4969 328.85938 312.23126Q328.53125 311.95 327.90625 311.95Q327.1875 311.95 326.875 312.2Q326.5625 312.4344 326.5625 312.7625Q326.5625 312.96564 326.6875 313.1219Q326.82812 313.29376 327.09375 313.40314Q327.25 313.46564 328.03125 313.66876Q329.15625 313.98126 329.59375 314.16876Q330.03125 314.35626 330.28125 314.71564Q330.53125 315.075 330.53125 315.6219Q330.53125 316.15314 330.21875 316.6219Q329.92188 317.075 329.34375 317.34064Q328.76562 317.59064 328.03125 317.59064Q326.8125 317.59064 326.17188 317.09064Q325.54688 316.575 325.375 315.59064ZM332.79688 317.45L332.79688 308.85626L333.85938 308.85626L333.85938 313.7625L336.34375 311.23126L337.71875 311.23126L335.32812 313.52814L337.95312 317.45L336.65625 317.45L334.59375 314.2625L333.85938 314.98126L333.85938 317.45L332.79688 317.45ZM341.5 315.1844L342.5625 315.04376Q342.73438 315.9344 343.17188 316.34064Q343.60938 316.73126 344.23438 316.73126Q344.98438 316.73126 345.5 316.21564Q346.01562 315.7 346.01562 314.9344Q346.01562 314.21564 345.53125 313.7469Q345.0625 313.2625 344.32812 313.2625Q344.03125 313.2625 343.57812 313.3875L343.70312 312.45Q343.8125 312.46564 343.875 312.46564Q344.54688 312.46564 345.07812 312.1219Q345.625 311.7625 345.625 311.02814Q345.625 310.45 345.23438 310.075Q344.84375 309.6844 344.21875 309.6844Q343.60938 309.6844 343.1875 310.075Q342.78125 310.46564 342.67188 311.23126L341.60938 311.04376Q341.79688 309.9969 342.48438 309.41876Q343.17188 308.825 344.1875 308.825Q344.89062 308.825 345.48438 309.1375Q346.07812 309.4344 346.39062 309.95Q346.70312 310.46564 346.70312 311.0594Q346.70312 311.60626 346.40625 312.075Q346.10938 312.52814 345.53125 312.79376Q346.28125 312.96564 346.70312 313.52814Q347.125 314.075 347.125 314.91876Q347.125 316.04376 346.29688 316.825Q345.48438 317.60626 344.23438 317.60626Q343.10938 317.60626 342.35938 316.9344Q341.60938 316.2469 341.5 315.1844Z" fill-rule="nonzero"/><path fill="#000000" d="M408.2963 317.45L408.2963 309.8719L405.46817 309.8719L405.46817 308.85626L412.28067 308.85626L412.28067 309.8719L409.43692 309.8719L409.43692 317.45L408.2963 317.45ZM417.0463 316.6844Q416.45255 317.1844 415.90567 317.3875Q415.37442 317.59064 414.74942 317.59064Q413.71817 317.59064 413.1713 317.09064Q412.62442 316.59064 412.62442 315.8094Q412.62442 315.35626 412.82755 314.98126Q413.03067 314.59064 413.37442 314.3719Q413.71817 314.1375 414.14005 314.02814Q414.43692 313.9344 415.07755 313.85626Q416.34317 313.71564 416.95255 313.4969Q416.95255 313.27814 416.95255 313.23126Q416.95255 312.575 416.65567 312.3094Q416.24942 311.96564 415.45255 311.96564Q414.71817 311.96564 414.3588 312.23126Q413.99942 312.48126 413.82755 313.1375L412.7963 312.9969Q412.93692 312.34064 413.26505 311.9344Q413.59317 311.52814 414.20255 311.3094Q414.81192 311.09064 415.6088 311.09064Q416.40567 311.09064 416.90567 311.27814Q417.40567 311.46564 417.64005 311.7469Q417.87442 312.02814 417.96817 312.46564Q418.01505 312.73126 418.01505 313.4344L418.01505 314.84064Q418.01505 316.3094 418.07755 316.7Q418.15567 317.09064 418.3588 317.45L417.24942 317.45Q417.09317 317.1219 417.0463 316.6844ZM416.95255 314.325Q416.37442 314.5594 415.2338 314.73126Q414.57755 314.825 414.31192 314.95Q414.0463 315.0594 413.89005 315.27814Q413.74942 315.4969 413.74942 315.77814Q413.74942 316.2 414.06192 316.48126Q414.39005 316.7625 414.99942 316.7625Q415.6088 316.7625 416.07755 316.4969Q416.56192 316.23126 416.78067 315.7625Q416.95255 315.40314 416.95255 314.71564L416.95255 314.325ZM419.56192 315.59064L420.59317 315.4344Q420.68692 316.0594 421.07755 316.3875Q421.4838 316.71564 422.21817 316.71564Q422.93692 316.71564 423.28067 316.4344Q423.64005 316.1375 423.64005 315.73126Q423.64005 315.3719 423.32755 315.16876Q423.1088 315.02814 422.24942 314.8094Q421.09317 314.5125 420.64005 314.3094Q420.20255 314.09064 419.96817 313.71564Q419.7338 313.34064 419.7338 312.8719Q419.7338 312.46564 419.9213 312.10626Q420.1088 311.7469 420.43692 311.5125Q420.68692 311.34064 421.1088 311.21564Q421.53067 311.09064 422.03067 311.09064Q422.74942 311.09064 423.2963 311.3094Q423.8588 311.5125 424.12442 311.8719Q424.39005 312.23126 424.4838 312.825L423.45255 312.96564Q423.39005 312.4969 423.0463 312.23126Q422.71817 311.95 422.09317 311.95Q421.37442 311.95 421.06192 312.2Q420.74942 312.4344 420.74942 312.7625Q420.74942 312.96564 420.87442 313.1219Q421.01505 313.29376 421.28067 313.40314Q421.43692 313.46564 422.21817 313.66876Q423.34317 313.98126 423.78067 314.16876Q424.21817 314.35626 424.46817 314.71564Q424.71817 315.075 424.71817 315.6219Q424.71817 316.15314 424.40567 316.6219Q424.1088 317.075 423.53067 317.34064Q422.95255 317.59064 422.21817 317.59064Q420.99942 317.59064 420.3588 317.09064Q419.7338 316.575 419.56192 315.59064ZM426.9838 317.45L426.9838 308.85626L428.0463 308.85626L428.0463 313.7625L430.53067 311.23126L431.90567 311.23126L429.51505 313.52814L432.14005 317.45L430.84317 317.45L428.78067 314.2625L428.0463 314.98126L428.0463 317.45L426.9838 317.45ZM439.06192 317.45L439.06192 315.3875L435.34317 315.3875L435.34317 314.41876L439.26505 308.85626L440.12442 308.85626L440.12442 314.41876L441.28067 314.41876L441.28067 315.3875L440.12442 315.3875L440.12442 317.45L439.06192 317.45ZM439.06192 314.41876L439.06192 310.5594L436.37442 314.41876L439.06192 314.41876Z" fill-rule="nonzero"/><path fill="#000000" d="M502.48322 317.45L502.48322 309.8719L499.6551 309.8719L499.6551 308.85626L506.4676 308.85626L506.4676 309.8719L503.62384 309.8719L503.62384 317.45L502.48322 317.45ZM511.23322 316.6844Q510.63947 317.1844 510.0926 317.3875Q509.56134 317.59064 508.93634 317.59064Q507.9051 317.59064 507.35822 317.09064Q506.81134 316.59064 506.81134 315.8094Q506.81134 315.35626 507.01447 314.98126Q507.2176 314.59064 507.56134 314.3719Q507.9051 314.1375 508.32697 314.02814Q508.62384 313.9344 509.26447 313.85626Q510.5301 313.71564 511.13947 313.4969Q511.13947 313.27814 511.13947 313.23126Q511.13947 312.575 510.8426 312.3094Q510.43634 311.96564 509.63947 311.96564Q508.9051 311.96564 508.54572 312.23126Q508.18634 312.48126 508.01447 313.1375L506.98322 312.9969Q507.12384 312.34064 507.45197 311.9344Q507.7801 311.52814 508.38947 311.3094Q508.99884 311.09064 509.79572 311.09064Q510.5926 311.09064 511.0926 311.27814Q511.5926 311.46564 511.82697 311.7469Q512.06134 312.02814 512.1551 312.46564Q512.20197 312.73126 512.20197 313.4344L512.20197 314.84064Q512.20197 316.3094 512.26447 316.7Q512.3426 317.09064 512.5457 317.45L511.43634 317.45Q511.2801 317.1219 511.23322 316.6844ZM511.13947 314.325Q510.56134 314.5594 509.42072 314.73126Q508.76447 314.825 508.49884 314.95Q508.23322 315.0594 508.07697 315.27814Q507.93634 315.4969 507.93634 315.77814Q507.93634 316.2 508.24884 316.48126Q508.57697 316.7625 509.18634 316.7625Q509.79572 316.7625 510.26447 316.4969Q510.74884 316.23126 510.9676 315.7625Q511.13947 315.40314 511.13947 314.71564L511.13947 314.325ZM513.74884 315.59064L514.7801 315.4344Q514.87384 316.0594 515.26447 316.3875Q515.6707 316.71564 516.4051 316.71564Q517.12384 316.71564 517.4676 316.4344Q517.82697 316.1375 517.82697 315.73126Q517.82697 315.3719 517.51447 315.16876Q517.2957 315.02814 516.43634 314.8094Q515.2801 314.5125 514.82697 314.3094Q514.38947 314.09064 514.1551 313.71564Q513.9207 313.34064 513.9207 312.8719Q513.9207 312.46564 514.1082 312.10626Q514.2957 311.7469 514.62384 311.5125Q514.87384 311.34064 515.2957 311.21564Q515.7176 311.09064 516.2176 311.09064Q516.93634 311.09064 517.4832 311.3094Q518.0457 311.5125 518.31134 311.8719Q518.57697 312.23126 518.6707 312.825L517.63947 312.96564Q517.57697 312.4969 517.2332 312.23126Q516.9051 311.95 516.2801 311.95Q515.56134 311.95 515.24884 312.2Q514.93634 312.4344 514.93634 312.7625Q514.93634 312.96564 515.06134 313.1219Q515.20197 313.29376 515.4676 313.40314Q515.62384 313.46564 516.4051 313.66876Q517.5301 313.98126 517.9676 314.16876Q518.4051 314.35626 518.6551 314.71564Q518.9051 315.075 518.9051 315.6219Q518.9051 316.15314 518.5926 316.6219Q518.2957 317.075 517.7176 317.34064Q517.13947 317.59064 516.4051 317.59064Q515.18634 317.59064 514.5457 317.09064Q513.9207 316.575 513.74884 315.59064ZM521.1707 317.45L521.1707 308.85626L522.2332 308.85626L522.2332 313.7625L524.7176 311.23126L526.0926 311.23126L523.70197 313.52814L526.32697 317.45L525.0301 317.45L522.9676 314.2625L522.2332 314.98126L522.2332 317.45L521.1707 317.45ZM529.87384 315.2L530.9832 315.10626Q531.1082 315.91876 531.5457 316.325Q531.99884 316.73126 532.63947 316.73126Q533.38947 316.73126 533.9207 316.15314Q534.45197 315.575 534.45197 314.6375Q534.45197 313.73126 533.93634 313.21564Q533.43634 312.6844 532.6082 312.6844Q532.1082 312.6844 531.68634 312.91876Q531.2801 313.15314 531.0457 313.5125L530.06134 313.3875L530.88947 308.98126L535.1707 308.98126L535.1707 309.98126L531.7332 309.98126L531.2801 312.29376Q532.0457 311.7469 532.88947 311.7469Q534.01447 311.7469 534.7801 312.52814Q535.56134 313.3094 535.56134 314.54376Q535.56134 315.7 534.88947 316.5594Q534.06134 317.59064 532.63947 317.59064Q531.4676 317.59064 530.7176 316.9344Q529.9832 316.27814 529.87384 315.2Z" fill-rule="nonzero"/><path fill="#000000" d="M200.96875 37.55L206.46875 23.2375L208.51562 23.2375L214.375 37.55L212.21875 37.55L210.54688 33.20625L204.5625 33.20625L202.98438 37.55L200.96875 37.55ZM205.10938 31.675L209.95312 31.675L208.46875 27.70625Q207.78125 25.89375 207.45312 24.7375Q207.17188 26.1125 206.67188 27.471874L205.10938 31.675ZM218.20312 37.55L214.25 27.175L216.10938 27.175L218.34375 33.39375Q218.70312 34.39375 219.0 35.471874Q219.23438 34.659374 219.65625 33.503124L221.95312 27.175L223.76562 27.175L219.84375 37.55L218.20312 37.55ZM231.42188 34.20625L233.23438 34.440624Q232.8125 36.01875 231.64062 36.909374Q230.48438 37.784374 228.67188 37.784374Q226.40625 37.784374 225.0625 36.39375Q223.73438 34.9875 223.73438 32.45625Q223.73438 29.83125 225.07812 28.39375Q226.42188 26.940624 228.57812 26.940624Q230.65625 26.940624 231.96875 28.3625Q233.29688 29.76875 233.29688 32.346874Q233.29688 32.503124 233.28125 32.815624L225.54688 32.815624Q225.64062 34.51875 226.51562 35.425Q227.39062 36.33125 228.6875 36.33125Q229.65625 36.33125 230.32812 35.83125Q231.01562 35.315624 231.42188 34.20625ZM225.64062 31.3625L231.4375 31.3625Q231.32812 30.065624 230.78125 29.409374Q229.9375 28.39375 228.59375 28.39375Q227.39062 28.39375 226.5625 29.20625Q225.73438 30.003124 225.64062 31.3625ZM235.29688 37.55L235.29688 27.175L236.875 27.175L236.875 28.753124Q237.48438 27.64375 238.0 27.3Q238.51562 26.940624 239.125 26.940624Q240.01562 26.940624 240.9375 27.503124L240.32812 29.14375Q239.6875 28.753124 239.04688 28.753124Q238.46875 28.753124 238.0 29.1125Q237.54688 29.45625 237.34375 30.065624Q237.0625 31.003124 237.0625 32.1125L237.0625 37.55L235.29688 37.55ZM249.09375 36.26875Q248.10938 37.096874 247.20312 37.440624Q246.29688 37.784374 245.26562 37.784374Q243.5625 37.784374 242.64062 36.95625Q241.71875 36.1125 241.71875 34.815624Q241.71875 34.05 242.0625 33.425Q242.42188 32.8 242.98438 32.425Q243.54688 32.034374 244.25 31.83125Q244.76562 31.70625 245.8125 31.565624Q247.9375 31.315624 248.9375 30.971874Q248.95312 30.6125 248.95312 30.503124Q248.95312 29.440624 248.45312 28.9875Q247.78125 28.39375 246.45312 28.39375Q245.20312 28.39375 244.60938 28.83125Q244.03125 29.26875 243.75 30.378124L242.03125 30.14375Q242.26562 29.034374 242.79688 28.3625Q243.32812 27.675 244.34375 27.315624Q245.35938 26.940624 246.70312 26.940624Q248.03125 26.940624 248.85938 27.253124Q249.6875 27.565624 250.07812 28.05Q250.46875 28.51875 250.625 29.2375Q250.71875 29.690624 250.71875 30.8625L250.71875 33.20625Q250.71875 35.659374 250.82812 36.315624Q250.9375 36.95625 251.28125 37.55L249.4375 37.55Q249.17188 37.003124 249.09375 36.26875ZM248.9375 32.346874Q247.98438 32.7375 246.0625 33.003124Q244.98438 33.159374 244.53125 33.3625Q244.09375 33.55 243.84375 33.925Q243.59375 34.3 243.59375 34.76875Q243.59375 35.471874 244.125 35.940624Q244.65625 36.409374 245.6875 36.409374Q246.70312 36.409374 247.48438 35.971874Q248.28125 35.51875 248.65625 34.753124Q248.9375 34.14375 248.9375 32.9875L248.9375 32.346874ZM253.0 38.409374L254.70312 38.659374Q254.8125 39.45625 255.29688 39.815624Q255.95312 40.3 257.09375 40.3Q258.3125 40.3 258.96875 39.815624Q259.64062 39.33125 259.875 38.45625Q260.01562 37.909374 260.0 36.190624Q258.84375 37.55 257.125 37.55Q254.98438 37.55 253.8125 36.003124Q252.64062 34.45625 252.64062 32.3Q252.64062 30.815624 253.17188 29.565624Q253.71875 28.315624 254.73438 27.628124Q255.76562 26.940624 257.14062 26.940624Q258.96875 26.940624 260.17188 28.425L260.17188 27.175L261.78125 27.175L261.78125 36.14375Q261.78125 38.565624 261.28125 39.565624Q260.79688 40.58125 259.71875 41.159374Q258.65625 41.753124 257.09375 41.753124Q255.25 41.753124 254.09375 40.925Q252.95312 40.096874 253.0 38.409374ZM254.45312 32.175Q254.45312 34.221874 255.26562 35.159374Q256.07812 36.096874 257.29688 36.096874Q258.5 36.096874 259.3125 35.159374Q260.14062 34.221874 260.14062 32.2375Q260.14062 30.33125 259.29688 29.3625Q258.45312 28.39375 257.26562 28.39375Q256.09375 28.39375 255.26562 29.346874Q254.45312 30.3 254.45312 32.175ZM271.42188 34.20625L273.23438 34.440624Q272.8125 36.01875 271.64062 36.909374Q270.48438 37.784374 268.67188 37.784374Q266.40625 37.784374 265.0625 36.39375Q263.73438 34.9875 263.73438 32.45625Q263.73438 29.83125 265.07812 28.39375Q266.42188 26.940624 268.57812 26.940624Q270.65625 26.940624 271.96875 28.3625Q273.29688 29.76875 273.29688 32.346874Q273.29688 32.503124 273.28125 32.815624L265.54688 32.815624Q265.64062 34.51875 266.51562 35.425Q267.39062 36.33125 268.6875 36.33125Q269.65625 36.33125 270.32812 35.83125Q271.01562 35.315624 271.42188 34.20625ZM265.64062 31.3625L271.4375 31.3625Q271.32812 30.065624 270.78125 29.409374Q269.9375 28.39375 268.59375 28.39375Q267.39062 28.39375 266.5625 29.20625Q265.73438 30.003124 265.64062 31.3625ZM285.1875 37.55L285.1875 24.925L280.46875 24.925L280.46875 23.2375L291.8125 23.2375L291.8125 24.925L287.07812 24.925L287.07812 37.55L285.1875 37.55ZM293.32812 25.253124L293.32812 23.2375L295.09375 23.2375L295.09375 25.253124L293.32812 25.253124ZM293.32812 37.55L293.32812 27.175L295.09375 27.175L295.09375 37.55L293.32812 37.55ZM297.3125 37.55L297.3125 27.175L298.89062 27.175L298.89062 28.628124Q299.375 27.878124 300.1875 27.409374Q301.0 26.940624 302.03125 26.940624Q303.1875 26.940624 303.92188 27.425Q304.65625 27.89375 304.96875 28.753124Q306.20312 26.940624 308.17188 26.940624Q309.71875 26.940624 310.54688 27.8Q311.375 28.659374 311.375 30.425L311.375 37.55L309.625 37.55L309.625 31.01875Q309.625 29.95625 309.45312 29.503124Q309.28125 29.034374 308.82812 28.753124Q308.39062 28.471874 307.78125 28.471874Q306.6875 28.471874 305.95312 29.20625Q305.23438 29.925 305.23438 31.51875L305.23438 37.55L303.48438 37.55L303.48438 30.815624Q303.48438 29.64375 303.04688 29.065624Q302.625 28.471874 301.64062 28.471874Q300.90625 28.471874 300.26562 28.8625Q299.64062 29.253124 299.35938 30.003124Q299.07812 30.753124 299.07812 32.175L299.07812 37.55L297.3125 37.55ZM320.42188 34.20625L322.23438 34.440624Q321.8125 36.01875 320.64062 36.909374Q319.48438 37.784374 317.67188 37.784374Q315.40625 37.784374 314.0625 36.39375Q312.73438 34.9875 312.73438 32.45625Q312.73438 29.83125 314.07812 28.39375Q315.42188 26.940624 317.57812 26.940624Q319.65625 26.940624 320.96875 28.3625Q322.29688 29.76875 322.29688 32.346874Q322.29688 32.503124 322.28125 32.815624L314.54688 32.815624Q314.64062 34.51875 315.51562 35.425Q316.39062 36.33125 317.6875 36.33125Q318.65625 36.33125 319.32812 35.83125Q320.01562 35.315624 320.42188 34.20625ZM314.64062 31.3625L320.4375 31.3625Q320.32812 30.065624 319.78125 29.409374Q318.9375 28.39375 317.59375 28.39375Q316.39062 28.39375 315.5625 29.20625Q314.73438 30.003124 314.64062 31.3625ZM329.67188 32.3625Q329.67188 29.4875 331.26562 28.096874Q332.60938 26.940624 334.53125 26.940624Q336.67188 26.940624 338.01562 28.346874Q339.375 29.753124 339.375 32.221874Q339.375 34.221874 338.78125 35.378124Q338.1875 36.51875 337.03125 37.159374Q335.89062 37.784374 334.53125 37.784374Q332.34375 37.784374 331.0 36.39375Q329.67188 34.9875 329.67188 32.3625ZM331.46875 32.3625Q331.46875 34.3625 332.32812 35.346874Q333.20312 36.33125 334.53125 36.33125Q335.84375 36.33125 336.70312 35.346874Q337.57812 34.346874 337.57812 32.3Q337.57812 30.378124 336.70312 29.39375Q335.82812 28.39375 334.53125 28.39375Q333.20312 28.39375 332.32812 29.39375Q331.46875 30.378124 331.46875 32.3625ZM341.3125 37.55L341.3125 27.175L342.90625 27.175L342.90625 28.659374Q344.04688 26.940624 346.20312 26.940624Q347.14062 26.940624 347.92188 27.284374Q348.71875 27.6125 349.10938 28.159374Q349.5 28.70625 349.65625 29.45625Q349.75 29.95625 349.75 31.175L349.75 37.55L347.98438 37.55L347.98438 31.2375Q347.98438 30.159374 347.78125 29.628124Q347.57812 29.096874 347.04688 28.784374Q346.53125 28.471874 345.82812 28.471874Q344.70312 28.471874 343.89062 29.190624Q343.07812 29.89375 343.07812 31.878124L343.07812 37.55L341.3125 37.55ZM361.1875 37.55L361.1875 24.925L356.46875 24.925L356.46875 23.2375L367.8125 23.2375L367.8125 24.925L363.07812 24.925L363.07812 37.55L361.1875 37.55ZM376.09375 36.26875Q375.10938 37.096874 374.20312 37.440624Q373.29688 37.784374 372.26562 37.784374Q370.5625 37.784374 369.64062 36.95625Q368.71875 36.1125 368.71875 34.815624Q368.71875 34.05 369.0625 33.425Q369.42188 32.8 369.98438 32.425Q370.54688 32.034374 371.25 31.83125Q371.76562 31.70625 372.8125 31.565624Q374.9375 31.315624 375.9375 30.971874Q375.95312 30.6125 375.95312 30.503124Q375.95312 29.440624 375.45312 28.9875Q374.78125 28.39375 373.45312 28.39375Q372.20312 28.39375 371.60938 28.83125Q371.03125 29.26875 370.75 30.378124L369.03125 30.14375Q369.26562 29.034374 369.79688 28.3625Q370.32812 27.675 371.34375 27.315624Q372.35938 26.940624 373.70312 26.940624Q375.03125 26.940624 375.85938 27.253124Q376.6875 27.565624 377.07812 28.05Q377.46875 28.51875 377.625 29.2375Q377.71875 29.690624 377.71875 30.8625L377.71875 33.20625Q377.71875 35.659374 377.82812 36.315624Q377.9375 36.95625 378.28125 37.55L376.4375 37.55Q376.17188 37.003124 376.09375 36.26875ZM375.9375 32.346874Q374.98438 32.7375 373.0625 33.003124Q371.98438 33.159374 371.53125 33.3625Q371.09375 33.55 370.84375 33.925Q370.59375 34.3 370.59375 34.76875Q370.59375 35.471874 371.125 35.940624Q371.65625 36.409374 372.6875 36.409374Q373.70312 36.409374 374.48438 35.971874Q375.28125 35.51875 375.65625 34.753124Q375.9375 34.14375 375.9375 32.9875L375.9375 32.346874ZM379.60938 34.45625L381.35938 34.175Q381.5 35.221874 382.17188 35.784374Q382.84375 36.33125 384.04688 36.33125Q385.25 36.33125 385.82812 35.846874Q386.42188 35.346874 386.42188 34.690624Q386.42188 34.096874 385.90625 33.753124Q385.54688 33.51875 384.10938 33.159374Q382.17188 32.659374 381.42188 32.315624Q380.6875 31.95625 380.29688 31.33125Q379.90625 30.690624 379.90625 29.925Q379.90625 29.2375 380.21875 28.64375Q380.54688 28.05 381.09375 27.659374Q381.5 27.3625 382.20312 27.159374Q382.92188 26.940624 383.73438 26.940624Q384.95312 26.940624 385.875 27.3Q386.79688 27.64375 387.23438 28.253124Q387.67188 28.846874 387.84375 29.846874L386.125 30.08125Q386.0 29.284374 385.4375 28.846874Q384.875 28.39375 383.85938 28.39375Q382.64062 28.39375 382.125 28.8Q381.60938 29.190624 381.60938 29.721874Q381.60938 30.065624 381.82812 30.346874Q382.03125 30.628124 382.5 30.815624Q382.76562 30.909374 384.04688 31.253124Q385.92188 31.753124 386.65625 32.08125Q387.39062 32.39375 387.8125 33.003124Q388.23438 33.596874 388.23438 34.503124Q388.23438 35.378124 387.71875 36.159374Q387.20312 36.940624 386.23438 37.3625Q385.26562 37.784374 384.04688 37.784374Q382.03125 37.784374 380.96875 36.940624Q379.90625 36.096874 379.60938 34.45625ZM390.32812 37.55L390.32812 23.2375L392.09375 23.2375L392.09375 31.39375L396.25 27.175L398.51562 27.175L394.5625 31.01875L398.92188 37.55L396.75 37.55L393.32812 32.253124L392.09375 33.440624L392.09375 37.55L390.32812 37.55Z" fill-rule="nonzero"/></svg>